<svg xmlns="http://www.w3.org/2000/svg" viewBox="0 0 589.59 665.35"><defs><style>.cls-1{fill:#726198;}</style></defs><g id="Layer_2" data-name="Layer 2"><g id="Layer_5" data-name="Layer 5"><path class="cls-1" d="M201.18,384.16,220.62,365V274.49c0-8.92-16.91-8.92-22.22-2.23a122,122,0,0,1-13.66,0s28.17-22.57,67.34-50.94c8.12-.22,5.8,8.28,4.18,9.83,0,0-7.87,7.37-10.18,14.75v69.25h7.18s62-40.9,102.07-63.67c4.84-6.7-3.25-12.51-6.71-17,0,0-7.63-6.25-5.79-10.49,2.57-5.9,18.51,6.25,54.87,33.07,0,0,8.55,4.9,1.61,8.7-5.1-.89-10.18-3.8-14.81-1.57,0,0-100,56.51-104.87,60.76,0,0,63.9,18.76,133.58,35.76,0,0,14.58,3.55,12.94,20.3s.46,32.18-16.2,33.06l-200.19.19c-7.67,1.6-10.26,9-13.22,11s-26.39-21.45-38.64-55c-.24-4.91,9.24-8.71,15.73.46s10.84,15.71,25,21.08l185.67-.09c19.91,0,15.05-9.37,1.63-10.27-15.29-4.7-114.82-32.17-123.62-33.73s-10.34-1.49-12.65.06l.16,17,23.14,19.81Z"/><polygon class="cls-1" points="487.9 298 530.63 240.75 497.68 194.65 463.27 229.69 487.9 298"/><polygon class="cls-1" points="324.19 123.2 378.42 86.86 425.17 118.09 392.76 155.07 324.19 123.2"/><path class="cls-1" d="M459.18,223.26l34.11-37.84s-36.55-54.16-59.68-63.5l-34.26,38.23s57.35,56.08,59.83,63.11"/><polygon class="cls-1" points="427.25 109.31 486.5 69.16 425.17 42.59 383.25 80.53 427.25 109.31"/><polygon class="cls-1" points="504.78 186.89 534.98 227.09 571.55 177.05 539.87 124.66 504.78 186.89"/><polygon class="cls-1" points="102.45 292.41 63.22 240.74 96.18 194.66 126.69 230.1 102.45 292.41"/><polygon class="cls-1" points="269.65 123.2 215.43 86.86 168.68 118.1 199.84 153.62 269.65 123.2"/><path class="cls-1" d="M132.33,220.65l-31.77-35.24s36.56-54.15,59.67-63.5l32.45,36.2s-57.85,55.52-60.35,62.54"/><polygon class="cls-1" points="166.61 109.31 106.23 68.41 173.63 37.2 210.61 80.53 166.61 109.31"/><polygon class="cls-1" points="89.08 186.88 58.88 227.11 22.31 177.05 51.67 120.55 89.08 186.88"/><polygon class="cls-1" points="102.45 369.94 65.1 427.21 98.06 473.3 128.37 442.43 102.45 369.94"/><polygon class="cls-1" points="271.54 544.75 217.31 581.06 170.56 549.83 202.98 512.88 271.54 544.75"/><path class="cls-1" d="M136.56,444.71l-34.11,37.83S139,536.67,162.11,546l34.28-38.24s-57.33-56.09-59.83-63.09"/><polygon class="cls-1" points="168.49 558.64 108.25 599.46 180.59 625.35 212.5 587.4 168.49 558.64"/><polygon class="cls-1" points="90.96 481.06 60.76 440.85 19.64 493.1 53.56 547.4 90.96 481.06"/><polygon class="cls-1" points="488.63 367.23 530.63 424.94 497.67 471.02 463.26 436 488.63 367.23"/><polygon class="cls-1" points="324.19 542.5 378.42 578.81 425.19 547.59 392.76 510.61 324.19 542.5"/><path class="cls-1" d="M459.19,442.43l34.1,37.86s-36.57,54.13-59.68,63.48l-34.27-38.25s57.33-56.08,59.85-63.09"/><polygon class="cls-1" points="427.24 556.36 486.27 596.38 415.14 623.09 383.23 585.14 427.24 556.36"/><polygon class="cls-1" points="504.78 478.8 534.98 438.59 571.55 488.63 539.75 540.85 504.78 478.8"/><polygon class="cls-1" points="294.8 665.36 326.28 596.94 293.77 538.02 258.77 596.94 294.8 665.36"/><polygon class="cls-1" points="293.77 127.35 326.28 68.41 293.77 0 258.77 68.41 293.77 127.35"/><polygon class="cls-1" points="589.59 334.65 544.72 367.48 488.63 333.05 546.68 301.52 589.59 334.65"/><polygon class="cls-1" points="0 334.39 53.83 367.23 100.97 332.8 53.98 301.27 0 334.39"/></g></g></svg>